# xmcd
#
# Track frame offsets: 
#        150
#        14466
#        33086
#        55097
#        70678
#        82780
#        95297
#        116032
#        140806
#        155305
#        168390
#        185783
#        201366
#        223787
#
# Disc length: 3221 seconds
#
# Revision: 0
# Processed by: cddbd v1.5PL3 Copyright (c) Steve Scherf et al.
# Submitted via: ExactAudioCopy v0.95a3
#
DISCID=bf0c930e
DTITLE=Chuck Brown and Eva Cassidy - The Other Side
DYEAR=1992
DGENRE=Negerpunk
TTITLE0=Let The Good Times Roll
TTITLE1=Fever
TTITLE2=You Don't Know Me
TTITLE3=I Could Have Told You
TTITLE4=Gee Baby, Ain't I Good To You
TTITLE5=I'll Go Crazy
TTITLE6=You Don't Know What Love Is
TTITLE7=Drown In My Own Tears
TTITLE8=God Bless The Child
TTITLE9=Red Top
TTITLE10=Dark End Of The Street
TTITLE11=The Shadow Of Your Smile
TTITLE12=Over The Rainbow
TTITLE13=You've Changed
EXTD=
EXTT0=
EXTT1=
EXTT2=
EXTT3=
EXTT4=
EXTT5=
EXTT6=
EXTT7=
EXTT8=
EXTT9=
EXTT10=
EXTT11=
EXTT12=
EXTT13=
PLAYORDER=
